<?xml version="1.0" encoding="UTF-8"?>
<svg id="Capa_1" xmlns="http://www.w3.org/2000/svg" xmlns:xlink="http://www.w3.org/1999/xlink" version="1.1" viewBox="0 0 1200 1200">
  <!-- Generator: Adobe Illustrator 30.2.1, SVG Export Plug-In . SVG Version: 2.1.1 Build 1)  -->
  <defs>
    <style>
      .st0 {
        fill: #fff;
      }

      .st1 {
        fill: url(#Degradado_sin_nombre);
      }

      .st2 {
        fill: url(#Degradado_sin_nombre_2);
      }

      .st3 {
        fill: #343e4f;
      }
    </style>
    <linearGradient id="Degradado_sin_nombre" data-name="Degradado sin nombre" x1="1163.8" y1="728.1" x2="3.3" y2="-424.8" gradientTransform="translate(0 432)" gradientUnits="userSpaceOnUse">
      <stop offset=".5" stop-color="#384252"/>
      <stop offset="1" stop-color="#1f2937"/>
    </linearGradient>
    <linearGradient id="Degradado_sin_nombre_2" data-name="Degradado sin nombre 2" x1="-23.1" y1="744.9" x2="1396.1" y2="744.9" gradientTransform="translate(0 432)" gradientUnits="userSpaceOnUse">
      <stop offset=".5" stop-color="#384252"/>
      <stop offset="1" stop-color="#1f2937"/>
    </linearGradient>
  </defs>
  <g id="Capa_11">
    <rect class="st1" width="1200" height="1200" rx="3" ry="3"/>
  </g>
  <ellipse class="st3" cx="611.7" cy="1144" rx="709.6" ry="472.1"/>
  <ellipse class="st2" cx="686.5" cy="1176.9" rx="709.6" ry="472.1"/>
  <path class="st0" d="M682.4,565.4l-78.5-38.1c-2.2-1.1-4.8-1.1-6.9,0l-78.5,38.1c-2.8,1.3-4.5,4.1-4.5,7.2v105.2c0,4.4,3.6,8,8,8h56.2c0,0,15.9,0,15.9,0,2.1,0,4.3,0,6.4-.1.6,0,1.1,0,1.7,0,7.1-.3,14.1-.9,20.3-2.1,14.6-3.1,24.4-11.4,24.4-27.6s-2.8-14-8-18.2c-.4.4-.7.7-1.1,1.1-3.4,3.2-7.7,5.6-12.6,7.1-2,.6-4.1,1.2-6.4,1.7,1.2,2.5,1.8,5.5,1.8,8.7,0,8.5-2.7,14.2-9.9,16.6-3.1,1.1-6.2,1.6-9.6,1.7-1,0-2,0-3.1,0h-3.1c-1.4,0-2.5-.2-3.3-.5-1.7-.7-2.1-2.4-2.1-5v-25.3h7.5c3,0,5.8,0,8.5-.2,1.9-.1,3.8-.3,5.6-.5.2,0,.4,0,.6,0s.3,0,.5,0,.3,0,.5,0c.5,0,1-.2,1.5-.2.2,0,.3,0,.5,0,3.2-.5,6.1-1.2,8.8-2.1,4.1-1.3,7.6-3.2,10.5-5.9,1.5-1.4,2.8-2.9,3.9-4.6.2-.2.3-.5.5-.7.9-1.6,1.7-3.3,2.4-5.1,1.2-3.4,1.8-7.2,1.8-11.2s-.1-3.6-.3-5.2c-.6-4.4-1.9-8.1-4-11.3-3-4.6-7.6-7.8-13.7-9.5-6.1-1.6-16.1-2.7-25.5-2.7h-44.8v7.9l3.8.5c2.6.3,4.2.9,5.1,2.1h0c1,1.1,1.2,2.6,1.2,4.6v70.8c0,0,0,.2,0,.2h0c0,.2,0,.2,0,.3,0,.1,0,.2,0,.3,0,.1,0,.2,0,.3,0,.1,0,.2,0,.3,0,0,0,.1,0,.2,0,0,0,0,0,.1h0c-.3,1.1-.9,1.9-1.9,2.5,0,0,0,0,0,0,0,0,0,0,0,0,0,0,0,0-.1,0,0,0-.1,0-.2.1-.9.4-2,.7-3.5,1,0,0-3.3.7-4,.7h-26.6c-2.2,0-4-1.8-4-4v-96.2c0-1.5.9-2.9,2.2-3.6l72.8-35.4c1.1-.5,2.4-.5,3.5,0l72.9,35.4c1.4.6,2.2,2.1,2.2,3.6v96.1c0,2.2-1.8,4-4,4h-27.4c-3.1,4-9,7.2-14.2,9.6h47.2c4.4,0,8-3.6,8-8v-105.1c0-3-1.7-5.8-4.5-7.2h0ZM588,592.9h9.5c6.3,0,11.5,1.1,14.7,3,4.6,2.7,7.2,8.9,7.2,17.3,0,13.2-5.4,18.2-9.9,20-3.1,1.2-8.8,2.1-13.9,2.1h-7.6v-42.4h0Z"/>
  <metadata>
    <sfw xmlns="http://ns.adobe.com/SaveForWeb/1.0/">
      <slices/>
      <sliceSourceBounds x="-7591" y="-7591.24" width="16383" height="16383" bottomLeftOrigin="true"/>
    </sfw>
  </metadata>
  <metadata><?xpacket begin="﻿" id="W5M0MpCehiHzreSzNTczkc9d"?>
<x:xmpmeta xmlns:x="adobe:ns:meta/" x:xmptk="Adobe XMP Core 10.0-c000 1.000000, 0000/00/00-00:00:00        ">
   <rdf:RDF xmlns:rdf="http://www.w3.org/1999/02/22-rdf-syntax-ns#">
      <rdf:Description rdf:about=""
            xmlns:xmp="http://ns.adobe.com/xap/1.0/"
            xmlns:xmpGImg="http://ns.adobe.com/xap/1.0/g/img/"
            xmlns:xmpTPg="http://ns.adobe.com/xap/1.0/t/pg/"
            xmlns:stDim="http://ns.adobe.com/xap/1.0/sType/Dimensions#"
            xmlns:xmpG="http://ns.adobe.com/xap/1.0/g/"
            xmlns:dc="http://purl.org/dc/elements/1.1/">
         <xmp:CreatorTool>Adobe Illustrator 30.2 (Macintosh)</xmp:CreatorTool>
         <xmp:CreateDate>2026-03-22T12:31:33-03:00</xmp:CreateDate>
         <xmp:Thumbnails>
            <rdf:Alt>
               <rdf:li rdf:parseType="Resource">
                  <xmpGImg:width>232</xmpGImg:width>
                  <xmpGImg:height>256</xmpGImg:height>
                  <xmpGImg:format>JPEG</xmpGImg:format>
                  <xmpGImg:image>/9j/4AAQSkZJRgABAgEAAAAAAAD/7QAsUGhvdG9zaG9wIDMuMAA4QklNA+0AAAAAABAAAAAAAAEA&#xA;AQAAAAAAAQAB/+4ADkFkb2JlAGTAAAAAAf/bAIQABgQEBAUEBgUFBgkGBQYJCwgGBggLDAoKCwoK&#xA;DBAMDAwMDAwQDA4PEA8ODBMTFBQTExwbGxscHx8fHx8fHx8fHwEHBwcNDA0YEBAYGhURFRofHx8f&#xA;Hx8fHx8fHx8fHx8fHx8fHx8fHx8fHx8fHx8fHx8fHx8fHx8fHx8fHx8fHx8f/8AAEQgBAADoAwER&#xA;AAIRAQMRAf/EAaIAAAAHAQEBAQEAAAAAAAAAAAQFAwIGAQAHCAkKCwEAAgIDAQEBAQEAAAAAAAAA&#xA;AQACAwQFBgcICQoLEAACAQMDAgQCBgcDBAIGAnMBAgMRBAAFIRIxQVEGE2EicYEUMpGhBxWxQiPB&#xA;UtHhMxZi8CRygvElQzRTkqKyY3PCNUQnk6OzNhdUZHTD0uIIJoMJChgZhJRFRqS0VtNVKBry4/PE&#xA;1OT0ZXWFlaW1xdXl9WZ2hpamtsbW5vY3R1dnd4eXp7fH1+f3OEhYaHiImKi4yNjo+Ck5SVlpeYmZ&#xA;qbnJ2en5KjpKWmp6ipqqusra6voRAAICAQIDBQUEBQYECAMDbQEAAhEDBCESMUEFURNhIgZxgZEy&#xA;obHwFMHR4SNCFVJicvEzJDRDghaSUyWiY7LCB3PSNeJEgxdUkwgJChgZJjZFGidkdFU38qOzwygp&#xA;0+PzhJSktMTU5PRldYWVpbXF1eX1RlZmdoaWprbG1ub2R1dnd4eXp7fH1+f3OEhYaHiImKi4yNjo&#xA;+DlJWWl5iZmpucnZ6fkqOkpaanqKmqq6ytrq+v/aAAwDAQACEQMRAD8A9U4qxz8yqj8ufNRHX9D3&#xA;/wD1CyYY80Hk+BQMyGpsDFVwGKrgMVbAxVsDFVwGKtgYquAxVsDCq4DFWwMVXAYquAxVsDFVwGKt&#xA;gYquAxVsDFVwGKtgYq2BireKvs78of8AyWnl7/mFX/iRzHnzbRyZfkUuxV2KuxVjn5lf+S581f8A&#xA;bHv/APqFkwx5oPJ8DAZkNS4DFVwGKtgYq2Biq4DFWwMVXAYq2BhVcBirYGKrgMVXAYq2Biq4DFWw&#xA;MVXAYq2Biq4DFWwMVbAxVvFXYq+zvyh/8lp5e/5hV/4kcx5820cmX5FLsVdirsVY5+ZX/kuvNX/b&#xA;Hv8A/qFkwx5oPJ8EAZkNS4DFWwMVbAxVcBirYGKrgMVbAwquAxVsDFVwGKtgYquAxVcBirYGKrgM&#xA;VbAxVcBirYGKtgYq3irsVdir7O/KH/yWnl7/AJhV/wCJHMefNtHJl+RS7FXYq7FWOfmT/wCS680/&#xA;9si//wCoWTDHmg8nwUBmQ1NgYq2Biq4DFWwMVXAYq2Biq4DCrYGKrgMVbAxVcBirYGKrgMVXAYq2&#xA;Biq4DFWwMVbAxVvFXYq7FXYq+zvyh/8AJaeXv+YVf+JHMefNtHJl+RS7FXYq7FWOfmT/AOS680/9&#xA;si//AOoaTDHmg8nwWBmQ1NgYquAxVsDFVwGKtgYquAxVsDCq4DFWwMVXAYq2Biq4DFVwGKtgYquA&#xA;xVsDFWwMVbxV2KuxV2KuxV9nflD/AOS08vf8wq/8SOY8+baOTL8il2KuxV2Ksc/Mn/yXfmn/ALZF&#xA;/wD9Q0mGPNB5PgwDMhqXAYq2Biq4DFWwMVXAYq2BhVcBirYGKrgMVbAxVcBiq4DFWwMVXAYq2Bir&#xA;YGKt4q7FXYq7FXYq7FX2d+UP/ktPL3/MKv8AxI5jz5to5MvyKXYq7FXYqx38yP8AyXfmn/tkX/8A&#xA;1DSYY80Hk+DQMyGpsDFVwGKtgYquAxVsDCq4DFWwMVXAYq2Biq4DFVwGKtgYquAxVsDFWwMVbxV2&#xA;KuxV2KuxV2KuxV9nflD/AOS08vf8wq/8SOY8+baOTL8il2KuxV2Ksd/Mj/yXfmn/ALZF/wD9Q0mG&#xA;PNB5Pg4DMhqXAYq2Biq4DFWwMKrgMVbAxVcBirYGKrgMVXAYq2Biq4DFWwMVbAxVvFXYq7FXYq7F&#xA;XYq7FXYq+zvyh/8AJaeXv+YVf+JHMefNtHJl+RS7FXYq7FWO/mP/AOS880f9si//AOoaTDHmg8nw&#xA;gBmQ1NgYquAxVsDCq4DFWwMVXAYq2Biq4DFWwMVXAYq2Biq4DFWwMVbxV2KuxV2KuxV2KuxV2Kux&#xA;V9nflD/5LTy9/wAwq/8AEjmPPm2jky/IpdirsVdirHfzH/8AJeeaP+2Rf/8AUNJhjzQeT4RAzIal&#xA;wGKtgYVXAYq2Biq4DFWwMVXAYq2Biq4DFWwMVXAYq2BireKuxV2KuxV2KuxV2KuxV2KuxV9nflD/&#xA;AOS08vf8wq/8SOY8+baOTL8il2KuxV2Ksd/Mf/yXvmj/ALZF/wD9Q0mGPNB5PhMDMhqbAwquAxVs&#xA;DFVwGKtgYquAxVsDFVwGKrkRmYKoLMxoANyScVZzpv5W3sNrHqXm69i8r6U+6G7Ba8lH/FNov71v&#xA;9lTI8XcmkUNb/JyB/wBGJ5ev7zTjUSa291wv+X88cK0gCjsrde+NFOyncfliNUge+8jalH5htVHO&#xA;Sw2g1GEf5dux+MDpyjrXsMeLvRTB57ee3meC4jaGeIlZIpFKurDqGU0IOSQp4q7FXYq7FXYq7FXY&#xA;q7FXYq+zvyh/8lp5e/5hV/4kcx5820cmX5FLsVdirsVY9+Y3/kvfNH/bJvv+oZ8MeaDyfCYGZLUu&#xA;AxVsDFVwGKtgYquAxVsDFVwGKtgYqyn8sEVvzE8uBgCP0hbmh36SA5GXJI5pzoSaX5g/NWay80pc&#xA;6jFqV5JaRyLOUkjkaakbkkNyRQCvHbr7UxOw2T1Zb5l8oflHo3nu18oXOnaijXZt1TUYbpSFa5PF&#xA;axuh2BO5yIJq0kBhP5k+Tbn8vvOK2VjfSsPSS8sLtT6cyo7MgqyEUZWjIqKZKJsMSKX/AJ1mv5la&#xA;qx+08dmzHxZrKEsfpJxhyWXNg+SQ7FXYq7FXYq7FXYq7FXYq+zvyh/8AJaeXv+YVf+JHMefNtHJl&#xA;+RS7FXYq7FWPfmN/5L3zP/2yb7/qGfDHmg8nwqBmS1NgYquAxVsDFVwGKtgYquAxVsDFVwGKsp/K&#xA;7/yYnlz/ALaFv/xMYJckjmmPlD/ycen/APbaH/UQcB5KOb1b8xdX8s6b+cWlLP5ebUtbuBZm0vXu&#xA;3SON2lMcbfVljPMoRy+3vlcQaZHmxH/nJPRpLTzNpuoT3puru/tmEsfEIkSwtRRGlWZVbmftMd67&#xA;5LGdkSYv+dP/AJMjU/8AjFY/9QMGShyRLmwfJIdirsVdirsVdirsVdirsVfZ35Q/+S08vf8AMKv/&#xA;ABI5jz5to5MvyKXYq7FXYqx78xf/ACX3mf8A7ZN9/wBQz4Y80Hk+FgMyWpcBirYGKrgMVbAxVcBi&#xA;re2Ku5Yq7kcVROm6lfabqFtqFjKYby0kWa3lFCVdDVTQ1B3HfFWbxfnV5tivPrsVjpMd5yMguV0+&#xA;FZebdW5gcqmvWuR4Ay4kXJ+f/wCYkk4uSbH60q8EufqkZkUb7Kxr44OALxFBTfnL5wuXEt/BpuoX&#xA;IFDc3dlDNJTrQFh8I/yVoPbDwBHExTzFr2reYNZudY1SUS312wMrqoRfgUIoCjYBVUAYQKQUtqw7&#xA;4VdzOKtiQYquDA98VdirsVdirsVdir7O/KH/AMlp5e/5hV/4kcx5820cmX5FLsVdirsVY9+Yv/kv&#xA;vM//AGyb7/qGfDHmg8nwwBmS1NgYquAxVsDFV2KuxVsKTiq4J4nFWwqjtireKuxV2KuxVxxVYcVW&#xA;nFVpxVbUjvirhM498VVFuUP2tsVVQQRUGoxV2KuxV9nflD/5LTy9/wAwq/8AEjmPPm2jky/Ipdir&#xA;sVdirHvzF/8AJfeZ/wDtk33/AFDPhjzQeT4ZAzJalwGKrgMVbxVcFJxVcFAxVvFXYq7FXYq7FXYq&#xA;7FXHFVhxVacVWnFVhxVacVWHFWg7KaqaHFVaO87SD/ZDFUSrKwqpqPHFX2f+UP8A5LTy9/zCr/xI&#xA;5jz5to5MvyKXYq7FXYqx/wDMT/yX/mf/ALZN9/1DPhjzQeT4aAzJal4FMVcAT0xVUVAPnireKuxV&#xA;2KuxV2KuxV2KuxV2KuOKrDiq04qtOKrDiq04qsOKrTgVYcKuSR42qppgV9W/kH+a/lrU/L+neVJp&#xA;PqWt2MXpRwykBLgAk1hbu1Duh38K5VOPVsiXsmVsnYq7FXYqwj84/NGk6F5A1ZL6Wk+qWs9hZQLu&#xA;8ks8TJUD+VOXJj/EjJQFlEjs+NMyGpsAk4qqAAYq7FXYq7FXYq7FXYq7FXYq7FXYq44qsOKrTiq0&#xA;4qsOKrTiqw4qtOBVhwqtOBWkkkjkWSNikiEMjqSCCDUEEdCMVfTP5H/n6dVkg8sebZwNRakenaq5&#xA;oJz0EUx6CT+Vv2uh+L7VU4dzOMnveVs3YqpXl5bWVpNeXUiw2ttG0s8rbKiICzMfYAYq+L/zN8+3&#xA;nnTzPNqLlksIqxabbH/dcIOxI/nf7Tfd0AzIjGg1E2xICppkkKoFBirsVdirsVdirsVdirsVdirs&#xA;VdirsVccVWHFVpxVacVWHFVpxVYcVWnAqw4VWnAq04qsqRuOuKvq/wD5x7/OFvMtkPLGuTctesY6&#xA;2tw53urdPE95Yx1/mXfsxymcabIl7TkGTxb/AJyY85vp+gWvlq1k43GrH1byh3FtEdl/56SfgpGW&#xA;Yx1YyL5my5rXoKCuKrsVdirsVdirsVdirsVdirsVdirsVdirjiqw4qtOKrTiqw4qtOKrDiq04FWH&#xA;Cq04FWnFVhxVFaPq+oaNqtrqunSmG9spVmgkHZlNd/EHoR3GJV93+Q/N9j5v8q2GvWdFF0n7+GtT&#xA;FMnwyxn/AFWBp4ih75jkU2gvlb87fMD61+ZOrycuUFjJ9QgHgtt8L0+cvNvpy+AoNcubBgKmmSQq&#xA;Yq7FXYq7FXYq7FXYq7FXYq7FXYq7FXYq44qsOKrTiq04qsOKrTiqw4qtOBVhwqtOBVpxVYcVWHFX&#xA;v3/OJ3m97fWdS8qTv+4vY/rtmp6CeKiyqPd4yD/sMryBnEvItRvHvdQubyQkyXMrzOTuayMWNfvy&#xA;1gop1xVfirsVdirsVdirsVdirsVdirsVdirsVdirjiqw4qtOKrTiqw4qtOKrDiq04FWHCq04FWnF&#xA;VhxVYcVZP+V+tNov5ieXtRBKrHfQxykdfSmb0Zf+ScjYJDZIQTqyMUYFWUkMD1BGSQuj6HFV2Kux&#xA;V2KuxV2KuxV2KuxV2KuxV2KuxV2KuOKrDiq04qtOKrDiq04qsOKrTgVYcKrTgVacVWHFVhxVuOV4&#xA;pUlQ0eNgyn3BqMVZz+YOjto/njXNOK8VhvJjEOn7p2Lx/wDCMMYnZJSGPvhQuxV2KuxV2KuxV2Ku&#xA;xV2KuxV2KuxV2KuxVxxVYcVWnFVpxVYcVWnFVhxVacCrDhVacCrTiqw4qsOKq+m2T32pWljGCXup&#xA;o4EA61kYKKffir6A/wCcnvKj2uv2PmWFP9H1GMW104HS4hHwFj/lxbD/AFDkMZ6M5B4mh3yxgvxV&#xA;2KuxV2KuxV2KuxV2KuxV2KuxV2KuxVxxVYcVWnFVpxVYcVWnFVhxVacCrDhVacCrTiqw4qsOKs9/&#xA;Iry62ufmlokXEtBYy/pC4NKhVtR6iV9jKEX6cjI7JjzfXvn/AMn2nm7yre6LPRZJV52kx/3XcJvG&#xA;/wAq7H2JymJothFvifUdPvNN1C4sL2Iw3dpI0U8TdVdDQjMlqUwajFXYq7FXYq7FXYq7FXYq7FXY&#xA;q7FXYq7FXHFVhxVacVWnFVhxVacVWHFVpwKsOFVpwKtOKrDiqw4q+pf+cVvJDafoF75ru4ytzqx+&#xA;r2PIUItYjVmHtJJ/xAHKshbIh7tlbJ4r+f8A+U76zbN5q0SHlqtslNRtkFWuIUG0igdZIwPpX5AG&#xA;yEujGQfNKHtlzWvxV2KuxV2KuxV2KuxV2KuxV2KuxV2KuOKrDiq04qtOKrDiq04qsOKrTgVYcKrT&#xA;gVacVWHFWV/lh+X9/wCePNdvpMAZLJCJtSuh0it1PxGv8zfZUePtXBI0kC33NYWFpp9jb2FnEsFp&#xA;axpDbwoKKkcahVUfIDMdtV8VdirwL86PyLeZ7jzN5UhLTOWl1HSkA+I9WlgHj3ZO/wCz4ZbCfQsJ&#xA;RfPwqCVYUYbEHY7ZawbxV2KuxV2KuxV2KuxV2KuxV2KuxVxxVYcVWnFVpxVYcVWnFVhxVacCrDhV&#xA;acCrTiqYeXPLmseY9ZttH0i3NxfXTcUQdFH7Tuf2VUbscSaSH2t+WP5caX5D8uJplqRNezES6lfU&#xA;o00tKd60Reir9PUnKJStsApl+RS7FXYq7FXln5ofkVo/mppdU0gppmvtVnalILg/8Wqv2W/y1HzB&#xA;7TjOmJi+aPMPlrXfLmovp2tWb2d0v2Q4+F16co3HwuvuDlwNsCEswodirsVdirsVdirsVdirsVdi&#xA;rjiqw4qtOKrTiqw4qtOKrDiq04FWHCq04FT7yX5E8yectWXTdEtjKwINxctVYYEJ+3K/Ye3U9gcB&#xA;NJAfYP5ZflZoHkPSvQs1Fzqc4H17U3UCSQ9eK9eEYPRR9NTlMpW2AUzTIpdirsVdirsVdiqW+YPL&#xA;WheYdPbT9aso721bcJIN1b+ZHFGRvdSDhBpaeDedv+cZ9QtvUu/KN19ch3b9G3TKkw9o5dkf5Nx+&#xA;Zy0ZO9gYvGtW0bVtHvGstUs5rK6TrDOhRqVpUV6jbYjbLAWCCxV2KuxV2KuxV2KuxV2KuOKrDiq0&#xA;4qtOKrDiq04qsOKrTgVpUeR1RFLu5CqqipJOwAAxV7F+XH/ON3mHXGi1DzPz0bSTRhbEAXkq9aBT&#xA;X0h7uK/5PfISmyEX0z5b8saD5b0uPS9Es47Kzj34IPiZuhd2NWdj/MxrlRNtlJpgV2KuxV2KuxV2&#xA;KuxV2KuxVAa1oGi65ZtZavZQ31s1f3cyBqEinJSd1b3XfCDSvHfOH/OMmmXJkufKt6bGQ1IsLstJ&#xA;DXsEl3kUf63PLBk72Bi8Y80flx508ss51fS5o7df+PyMerbkdv3qclFfBqHLBIFiQxrCh2KuxV2K&#xA;uxV2KuOKrDiq04qtOKrDiq04qr6fpepandLaadaTXt0/2ILeNpXP+xUE4Cr1byh/zjL5y1UpPrss&#xA;eh2bUJjak1yR7RoeC1/ynqPDIHIGQi958k/lH5H8n8ZdMsRNqAFDqV0RLcdKHiSAsdf8gDKzIlmB&#xA;TM8il2KuxV2KuxV2KuxV2KuxV2KuxV2KuxVxAIIIqDsQcVYf5g/KL8vNd5PeaPDFcPubm1rbycj+&#xA;0fS4qx/1gckJEIoPOta/5xa05yz6LrcsA6rDdxLKPl6kZjp/wJyYyMeBhOp/844/mRaE/VY7TURX&#xA;4fq84QkfKcQj8ckMgRwli19+Vv5i2RIn8u3zU6mGFpx98XMYeIIopLcaDrlsaXOnXUBrSkkMib9f&#xA;2gMlaECQQSCKEbEHFWjiqpDZXlxT6vBJNU8R6aM2/hsDiqZ2nkXzre0+qaDqEwP7SWsxX/guNO2D&#xA;iCaZDp35D/mlf0I0Y20Z/buZoYv+FLc/+FyJmE8JZhpH/OKvmGYq2r61a2idStsklw1PD4/QAP34&#xA;DkTwPQNA/wCcbfy500rJfR3GrzDc/WpCkdfaOH09vZi2QOQp4Q9I0nRNG0e2FrpVjBYW4p+6t41i&#xA;U07niBU+5yBLJG4q7FXYq7FXYq7FXYq//9k=</xmpGImg:image>
               </rdf:li>
            </rdf:Alt>
         </xmp:Thumbnails>
         <xmpTPg:MaxPageSize rdf:parseType="Resource">
            <stDim:w>1200.000000</stDim:w>
            <stDim:h>1200.000000</stDim:h>
            <stDim:unit>Pixels</stDim:unit>
         </xmpTPg:MaxPageSize>
         <xmpTPg:NPages>1</xmpTPg:NPages>
         <xmpTPg:HasVisibleTransparency>False</xmpTPg:HasVisibleTransparency>
         <xmpTPg:HasVisibleOverprint>False</xmpTPg:HasVisibleOverprint>
         <xmpTPg:PlateNames>
            <rdf:Seq>
               <rdf:li>Cyan</rdf:li>
               <rdf:li>Magenta</rdf:li>
               <rdf:li>Yellow</rdf:li>
               <rdf:li>Black</rdf:li>
            </rdf:Seq>
         </xmpTPg:PlateNames>
         <xmpTPg:SwatchGroups>
            <rdf:Seq>
               <rdf:li rdf:parseType="Resource">
                  <xmpG:groupName>Grupo de muestras por defecto</xmpG:groupName>
                  <xmpG:groupType>0</xmpG:groupType>
               </rdf:li>
            </rdf:Seq>
         </xmpTPg:SwatchGroups>
         <dc:format>image/svg+xml</dc:format>
      </rdf:Description>
   </rdf:RDF>
</x:xmpmeta>
                                                                                                    
                                                                                                    
                                                                                                    
                                                                                                    
                                                                                                    
                                                                                                    
                                                                                                    
                                                                                                    
                                                                                                    
                                                                                                    
                                                                                                    
                                                                                                    
                                                                                                    
                                                                                                    
                                                                                                    
                                                                                                    
                                                                                                    
                                                                                                    
                                                                                                    
                                                                                                    
                           
<?xpacket end="w"?>
  </metadata>
</svg>