<?xml version="1.0" encoding="UTF-8"?>
<svg id="Capa_1" xmlns="http://www.w3.org/2000/svg" xmlns:xlink="http://www.w3.org/1999/xlink" version="1.1" viewBox="0 0 1200 1200">
  <!-- Generator: Adobe Illustrator 29.4.0, SVG Export Plug-In . SVG Version: 2.1.0 Build 152)  -->
  <defs>
    <style>
      .st0 {
        fill: #010000;
      }

      .st1 {
        fill: #a68866;
      }

      .st2 {
        fill: #eae4dc;
      }

      .st3 {
        fill: #fd3050;
      }

      .st4 {
        fill: #56555b;
      }

      .st5 {
        fill: #88878f;
      }

      .st6 {
        fill: #46f7fe;
      }

      .st7 {
        fill: #00d6de;
      }

      .st8 {
        fill: #020202;
      }

      .st9 {
        fill: #e7e1d9;
      }

      .st10 {
        fill: #fed322;
      }

      .st11 {
        fill: #bfaa90;
      }

      .st12 {
        fill: url(#Degradado_sin_nombre_3);
      }

      .st13 {
        fill: url(#Degradado_sin_nombre_31);
      }

      .st14 {
        fill: #fce7aa;
      }

      .st15 {
        fill: #cb2a00;
      }

      .st16 {
        fill: #7f6649;
      }

      .st17 {
        fill: #343e4f;
      }
    </style>
    <linearGradient id="Degradado_sin_nombre_3" data-name="Degradado sin nombre 3" x1="1163.8" y1="39.9" x2="3.3" y2="1192.8" gradientTransform="translate(0 1200) scale(1 -1)" gradientUnits="userSpaceOnUse">
      <stop offset=".5" stop-color="#384252"/>
      <stop offset="1" stop-color="#1f2937"/>
    </linearGradient>
    <linearGradient id="Degradado_sin_nombre_31" data-name="Degradado sin nombre 3" x1="-23.1" y1="23.1" x2="1396.1" y2="23.1" xlink:href="#Degradado_sin_nombre_3"/>
  </defs>
  <g id="Capa_11" data-name="Capa_1">
    <rect class="st12" width="1200" height="1200" rx="3" ry="3"/>
  </g>
  <ellipse class="st17" cx="611.7" cy="1144" rx="709.6" ry="472.1"/>
  <ellipse class="st13" cx="686.5" cy="1176.9" rx="709.6" ry="472.1"/>
  <g id="Capa_2">
    <g>
      <g>
        <path class="st0" d="M649,542.4h22.9c2.2,0,6.2,4.1,6.6,6.4.8,11.7,4.8,24.7,5.2,36.3s-4.5,13.5-11.5,14.6v69.5h7.7c.3,0,2.2,1,2.7,1.3,7.2,4.4,4.3,15.6-4.1,16h-157.8c-7.8-1.5-9.8-12.2-2.8-16.2s2.2-1.2,2.5-1.2h7.7v-69.5c-7-1.1-11.8-7.5-11.5-14.6.4-11.5,4.4-24.6,5.2-36.3.4-2.4,4.2-6.4,6.6-6.4h22.9v-22.2c0-2.7,5.1-7.2,8.1-6.7h82.5c2.7,0,7.4,4.2,7.4,6.7v22.2h-.3ZM643.3,577v-57.7h-86.5v57.7h86.5ZM539.5,548.1h-10.3c-1.5,0-2,2.8-2.2,3.9-2.2,10.8-2.6,22.5-4.8,33.4-.3,9.5,12.7,12.1,16.4,4.1s.9-2.1.9-2.4v-39.1h0ZM551,548.1h-5.8v39.1c0,1.3,2.2,4.2,3.2,5,7,5.7,15.7-1.4,14.1-9.6-3.9.3-7.5-.3-9.9-3.6s-1.7-2.9-1.7-3.4v-27.6h.1ZM654.8,548.1h-5.8v27.6c0,.5-1.2,2.8-1.7,3.4-2.4,3.3-6,4-9.9,3.6-1.6,8.2,7.1,15.3,14.1,9.6s3.2-3.7,3.2-5v-39.1h.1ZM666.3,593.5c.3,0,.5.6,1.3.7,5.4.9,10.2-3,10.3-8.5l-5.2-35.9c-1.1-2.7-6.6-1.9-9.2-1.8s-1.9,0-2.9,0v39.1c0,3.1,3.2,5.4,5.8,6.3h0ZM585.6,582.7h-17.3c-1.7,15.3,19,15.3,17.3,0ZM608.6,582.7h-17.3c-1.7,15.3,19,15.3,17.3,0ZM631.7,582.7h-17.3c-1.7,15.3,19,15.3,17.3,0ZM660.5,597.1c-.7-.5-2.5-2.6-3-2.5-5,5.4-12,7.1-18.6,3.4s-2.8-2.3-4.4-3.4c-5,5.4-12,7.1-18.6,3.4s-2.8-2.3-4.4-3.4c-5,5.4-12,7.1-18.6,3.4s-2.8-2.3-4.4-3.4c-5,5.4-12,7.1-18.6,3.4s-2.8-2.3-4.4-3.4c-5,5.4-12,7.1-18.6,3.4s-2.8-2.3-4.4-3.4c-2.3,2.5-5.1,4.4-8.5,5v69.5h5.8v-43.1c0-11.6,13.4-20.9,24.3-20.4,9.9.5,21.8,10,21.8,20.4v43.1c25,0,50,.2,74.9,0s3.8,0,5.8,0v-69.5c-2-.2-4.1-1.4-5.8-2.5h-.3ZM562.2,611.6c-7.7.2-16.9,7.3-16.9,15.3v42.3h34.5v-42.3c0-8.3-9.7-15.5-17.7-15.3h.1ZM680.7,680.8v-5.8h-161.5v5.8h161.5Z"/>
        <g>
          <path class="st3" d="M539.5,548.1v39.1c0,.2-.7,2-.9,2.4-3.7,8-16.7,5.3-16.4-4.1,2.2-10.9,2.6-22.6,4.8-33.4s.7-3.9,2.2-3.9h10.3Z"/>
          <path class="st15" d="M666.3,593.5c1.6-2.6,3-4.9,2.9-8.1-2.1-12.4-3-25.1-5.8-37.3,2.6,0,8.1-.9,9.2,1.8l5.2,35.9c0,5.5-4.9,9.3-10.3,8.5s-1-.6-1.3-.7h0Z"/>
          <path class="st3" d="M551,548.1v27.6c0,.5,1.2,2.8,1.7,3.4,2.4,3.3,6,4,9.9,3.6,1.6,8.2-7.1,15.3-14.1,9.6s-3.2-3.7-3.2-5v-39.1h5.8-.1Z"/>
          <path class="st3" d="M654.8,548.1v39.1c0,1.3-2.2,4.2-3.2,5-7,5.7-15.7-1.4-14.1-9.6,3.9.3,7.5-.3,9.9-3.6s1.7-2.9,1.7-3.4v-27.6h5.8-.1Z"/>
          <path class="st3" d="M663.4,548.1c2.8,12.2,3.7,24.9,5.8,37.3,0,3.2-1.3,5.5-2.9,8.1-2.5-.9-5.8-3.3-5.8-6.3v-39.1h2.9Z"/>
          <path class="st3" d="M585.6,582.7c1.7,15.3-19,15.3-17.3,0h17.3Z"/>
          <path class="st3" d="M608.6,582.7c1.7,15.3-19,15.3-17.3,0h17.3Z"/>
          <path class="st3" d="M631.7,582.7c1.7,15.3-19,15.3-17.3,0h17.3Z"/>
        </g>
        <g>
          <path class="st2" d="M633.9,519.3c.5.9.7,1.7.7,2.7.6,8.3-.5,17.4,0,25.8-1.8-2.3-5.8-4.7-8.6-5v-11.9h5.8v-5.8h-17.3v5.8h5.8v5.8h-23.1v-2.9h2.9v-5.8h-11.5v5.8c.5,0,2.8,0,2.9,0s0,4,0,4.4-5.7,6-6.1,6.2c-1,.5-2.6-.9-3.8-1.3-13.7-4.4-24.9,11.8-15.7,22.9,7.9,9.5,22.7,5.4,25.4-6.3h17.8c2.3,10.5,14,15,22.9,8.6.5-.4,2.5-2,2.8-2.5-.3,3.7.7,7.8-.7,11.2h-77.1v-57.7h77.1-.2Z"/>
          <path class="st11" d="M633.9,577c1.4-3.4.4-7.5.7-11.2,3.7-5,3.9-13.1,0-18-.4-8.4.6-17.4,0-25.8,0-1-.3-1.8-.7-2.7h9.4v57.7h-9.4Z"/>
          <path class="st8" d="M634.6,565.8c-.3.4-2.2,2.1-2.8,2.5-8.8,6.4-20.6,1.9-22.9-8.5h-17.8c-2.7,11.7-17.5,15.8-25.4,6.3-9.2-11.1,2-27.3,15.7-22.9,1.1.4,2.7,1.7,3.8,1.3s5.9-5.8,6.1-6.2.2-4.3,0-4.4-2.4,0-2.9,0v-5.8h11.5v5.8h-2.9v2.9h23.1v-5.8h-5.8v-5.8h17.3v5.8h-5.8v11.9c2.9.3,6.9,2.8,8.6,5,3.9,5,3.7,13,0,18h.2ZM620.2,542.4h-24.7c-.4,0-6.1,5.9-6.3,6.4-.3,1,2,3.7,1.8,5.1h17.8c1.1-4,3.5-7.6,7.2-9.7l4.2-1.8ZM580.5,548.9c-8.8-3.8-16.6,7.1-9.9,14s18.1-.9,14.2-9.7l-5.6,5.4c-.6,0-3.4-3.2-4.1-3.8l5.4-5.9h0ZM620.2,548.9c-8.1,2.5-7.3,14.4.8,16.3s15.3-12.8,5-16.3v7.9h-5.8v-7.9Z"/>
          <path class="st2" d="M620.2,542.4l-4.2,1.8c-3.8,2.1-6.1,5.7-7.2,9.8h-17.8c.2-1.5-2-4.2-1.8-5.2s5.8-6.4,6.3-6.4h24.7Z"/>
          <path class="st9" d="M580.5,548.9l-5.4,5.9c.7.6,3.4,3.9,4.1,3.8l5.6-5.4c3.9,8.8-7.5,16.6-14.2,9.7s1.1-17.8,9.9-14h0Z"/>
          <path class="st9" d="M620.2,548.9v7.9h5.8v-7.9c10.3,3.5,5.4,18.9-5,16.3s-8.9-13.8-.8-16.3Z"/>
        </g>
      </g>
      <g>
        <path class="st10" d="M660.5,597.1c1.6,1.2,3.8,2.3,5.8,2.5v69.5h-5.8v-72.1h0Z"/>
        <g>
          <path class="st5" d="M671.7,675c.4,2.1.4,3.7,0,5.8h-152.4v-5.8h152.4,0Z"/>
          <path class="st4" d="M671.7,680.8c.4-2.1.4-3.7,0-5.8h9v5.8h-9Z"/>
        </g>
        <g>
          <path class="st14" d="M660.5,597.1v15.5c-1.3-3.4-3.7-6.1-7.4-6.8-15.4,1-32.7-1.4-47.9,0-4.6.4-7.8,4-8.1,8.5-1,13.3.8,28,0,41.5.6,4.1,3.9,7.4,8.1,7.8,15.1,1.4,32.3-1.1,47.6,0,3.9-.5,6.5-3.3,7.7-6.8v12.6c-25,.2-50,0-74.9,0v-43.1c0-10.4-11.9-19.9-21.8-20.4-10.9-.5-24.3,8.8-24.3,20.4v43.1h-5.8v-69.5c3.4-.6,6.2-2.5,8.5-5,1.6,1.1,2.6,2.4,4.4,3.4,6.6,3.7,13.7,2,18.6-3.4,1.6,1.1,2.6,2.4,4.4,3.4,6.6,3.7,13.7,2,18.6-3.4,1.6,1.1,2.6,2.4,4.4,3.4,6.6,3.7,13.7,2,18.6-3.4,1.6,1.1,2.6,2.4,4.4,3.4,6.6,3.7,13.7,2,18.6-3.4,1.6,1.1,2.6,2.4,4.4,3.4,6.6,3.7,13.7,2,18.6-3.4.5,0,2.3,2,3,2.5l.3-.3Z"/>
          <g>
            <path class="st1" d="M562.2,611.6c.5,1.4,2.3,2,3.3,3,7.6,7.7,5.7,18.7,5.7,28.7v26h-25.9v-42.3c0-8.1,9.3-15.1,16.9-15.3h0Z"/>
            <path class="st16" d="M562.2,611.6c7.9-.2,17.7,7,17.7,15.3v42.3h-8.6v-20.2h5.8v-5.8h-5.8c0-9.9,1.8-21-5.7-28.7-1-1-2.8-1.7-3.3-3h-.1Z"/>
            <path d="M571.2,643.3h5.8v5.8h-5.8v-5.8Z"/>
          </g>
        </g>
        <g>
          <path d="M660.5,612.6v44c-1.3,3.5-3.9,6.3-7.7,6.8-15.3-1-32.5,1.4-47.6,0-4.2-.4-7.5-3.6-8.1-7.8.8-13.5-1-28.1,0-41.5.4-4.5,3.5-8.1,8.1-8.5,15.2-1.4,32.5,1,47.9,0,3.7.7,6.2,3.4,7.4,6.8v.2ZM654.8,657.7v-46.2h-51.9v46.2h51.9Z"/>
          <path class="st6" d="M645.4,611.5c1,1.8.7,3.8.7,5.8-3.6-.4-7.8.3-11.5,0v5.8h8.6v8.6h2.9c-.4,7.6.5,15.7,0,23.3s-.3,1.8-.7,2.7h-42.5v-46.2h42.5Z"/>
          <path class="st7" d="M645.4,657.7c.5-.9.7-1.7.7-2.7.5-7.5-.4-15.7,0-23.3h2.9v-12.4c0-1.1-1.9-1.9-2.9-2,0-2,.3-4-.7-5.8h9.4v46.2h-9.4Z"/>
          <path d="M646.1,617.3c1,0,2.9.9,2.9,2v12.4h-5.8v-8.6h-8.6v-5.8c3.7.3,7.9-.4,11.5,0h0Z"/>
        </g>
      </g>
    </g>
  </g>
</svg>