<?xml version="1.0" encoding="UTF-8"?>
<svg id="Capa_1" xmlns="http://www.w3.org/2000/svg" xmlns:xlink="http://www.w3.org/1999/xlink" version="1.1" viewBox="0 0 172.8 172.8">
  <!-- Generator: Adobe Illustrator 29.4.0, SVG Export Plug-In . SVG Version: 2.1.0 Build 152)  -->
  <defs>
    <style>
      .st0 {
        fill: #fff;
      }

      .st1 {
        fill: url(#Degradado_sin_nombre_3);
      }
    </style>
    <linearGradient id="Degradado_sin_nombre_3" data-name="Degradado sin nombre 3" x1=".2" y1="88.3" x2="173" y2="88.3" gradientTransform="translate(0 174.8) scale(1 -1)" gradientUnits="userSpaceOnUse">
      <stop offset="0" stop-color="#8ebf29"/>
      <stop offset="1" stop-color="#efa30e"/>
    </linearGradient>
  </defs>
  <circle class="st1" cx="86.6" cy="86.5" r="86.4"/>
  <g>
    <path class="st0" d="M69.1,103.8h-18.1l-2.5,8.5h-16.3l19.4-51.5h17.4l19.4,51.5h-16.7l-2.6-8.5h0ZM65.8,92.6l-5.7-18.5-5.6,18.5h11.3Z"/>
    <path class="st0" d="M93.4,60.7h29.8c5,0,8.8,1.2,11.4,3.7,2.7,2.5,4,5.5,4,9.1s-.9,5.7-2.8,7.8c-1.3,1.5-3.1,2.6-5.6,3.4,3.7.9,6.4,2.4,8.2,4.6,1.7,2.2,2.6,4.9,2.6,8.2s-.6,5.1-1.9,7.2c-1.2,2.1-2.9,3.8-5.1,5.1-1.3.8-3.4,1.3-6,1.7-3.6.5-6,.7-7.1.7h-27.5v-51.5h0ZM109.5,80.9h6.9c2.5,0,4.2-.4,5.2-1.3,1-.9,1.5-2.1,1.5-3.7s-.5-2.7-1.5-3.5-2.7-1.3-5.1-1.3h-7v9.8h0ZM109.5,101.2h8.1c2.7,0,4.7-.5,5.8-1.5s1.7-2.3,1.7-3.9-.6-2.7-1.7-3.7c-1.1-.9-3.1-1.4-5.9-1.4h-8.1v10.4h.1Z"/>
  </g>
</svg>