<?xml version="1.0" encoding="UTF-8"?>
<svg xmlns="http://www.w3.org/2000/svg" xmlns:xlink="http://www.w3.org/1999/xlink" version="1.1" viewBox="0 0 1200 1200">
  <!-- Generator: Adobe Illustrator 29.4.0, SVG Export Plug-In . SVG Version: 2.1.0 Build 152)  -->
  <defs>
    <style>
      .st0 {
        fill: #fdfdfe;
      }

      .st1 {
        fill: #dce0e9;
      }

      .st2 {
        fill: #f1f5fa;
      }

      .st3 {
        fill: #eaeaf5;
      }

      .st4 {
        fill: #e7e9f3;
      }

      .st5 {
        fill: #343e4f;
        stroke: #434a54;
      }

      .st5, .st6 {
        stroke-miterlimit: 10;
      }

      .st7 {
        fill: #fe478c;
      }

      .st8 {
        fill: #b574f0;
      }

      .st9 {
        fill: #fdfbfd;
      }

      .st6 {
        fill: url(#Degradado_sin_nombre_231);
        stroke: #494949;
      }

      .st10 {
        fill: #8f4cd6;
      }

      .st11 {
        fill: #bec2d1;
      }

      .st12 {
        fill: #8f4ed5;
      }

      .st13 {
        fill: #ef518d;
      }

      .st14 {
        fill: #dce0ea;
      }

      .st15 {
        fill: url(#Degradado_sin_nombre_23);
      }

      .st16 {
        fill: #fd73a5;
      }

      .st17 {
        fill: #e8ebf3;
      }

      .st18 {
        fill: #bec2d2;
      }
    </style>
    <linearGradient id="Degradado_sin_nombre_23" data-name="Degradado sin nombre 23" x1="1163.8" y1="1160.1" x2="3.3" y2="7.2" gradientUnits="userSpaceOnUse">
      <stop offset=".5" stop-color="#384252"/>
      <stop offset="1" stop-color="#1f2937"/>
    </linearGradient>
    <linearGradient id="Degradado_sin_nombre_231" data-name="Degradado sin nombre 23" x1="-23.1" y1="1176.9" x2="1396.2" y2="1176.9" xlink:href="#Degradado_sin_nombre_23"/>
  </defs>
  <g id="Capa_1">
    <rect class="st15" width="1200" height="1200" rx="3" ry="3"/>
  </g>
  <g id="Capa_3">
    <g>
      <ellipse class="st5" cx="611.7" cy="1144" rx="709.6" ry="472.1"/>
      <ellipse class="st6" cx="686.5" cy="1176.9" rx="709.6" ry="472.1"/>
    </g>
  </g>
  <g id="Capa_2">
    <g>
      <path class="st10" d="M658.8,563.8c.4.1.8.1,1,.5,8.8,8.7,17.4,17.7,26.4,26.2,0,.8.3,1.9.3,2.4v14.2l-1.1,7.8c-6.2,35.7-34.8,64.3-70.5,70.5l-7.8,1.1c-4.7-.2-9.6.3-14.2,0s-9.4-1.4-13.5-2.4c-6.7-6.8-13.3-13.7-20.1-20.5s-11.3-10.7-16.6-16.4-.8,0-1.2-1.7c1.6,0,3.3,0,4.9,0,17.4.8,36,.3,53.6.4,19.6,0,39.2,0,58.8,0v-16.6c-1,0-2,0-3,0v-49.7c1,0,2,0,3,0v-15.9Z"/>
      <path class="st8" d="M686.2,590.5c-9-8.5-17.6-17.5-26.4-26.2-.3-.4-.7-.4-1-.5-2.2-.8-7.3-.3-10-.3s-1.3-.3-1.8-.4l-47.3-35.5-46.3,35.5c-.5,0-1.2.3-1.8.4-3.4,0-6.9,0-10.3,0,.3,4.9-.4,10.3,0,15.1s.2.7.4,1.1c.3.9,1.9,2.8,3,3,0,.6,0,1.4,0,2.2,0,14.8,0,29.6,0,44.5-.8,0-3.1-.3-3.3.6.2,4.7-.4,9.9,0,14.5s.3.8.4,1.1c.4,1.6.2.7,1.2,1.7,5.3,5.7,11.1,10.9,16.6,16.4s13.4,13.7,20.1,20.5c-70.2-17.1-89.8-108.9-32.1-152.9,53.6-40.9,131.8-7.5,138.9,59.3Z"/>
      <path class="st12" d="M655.8,629.4c-.1,0-.2,0-.3,0v-49.7c.1,0,.2,0,.3,0v49.7Z"/>
      <path class="st12" d="M544.6,579.7c0,1,0,2,0,3-1.1-.3-2.7-2.2-3-3h3Z"/>
      <path class="st12" d="M600.3,540.2c9.5,8,19.8,15.1,29.4,23-9.8,0-19.9.3-29.7.3-9.9,0-19.8,0-29.7,0s-.5,0-.7,0l30.8-23.3Z"/>
      <g>
        <path class="st18" d="M614.9,629.4c4,0,8.4.4,12.5.3s5.6-.3,8.5-.3c4,0,8.1,0,12.2,0,2.7,0,4.6.2,7.4,0s.2,0,.3,0c1,0,2,0,3,0v16.6c-19.6,0-39.2,0-58.8,0,.1-4.8-.2-9.7,0-14.5s0-1.1,0-1.7c.2,0,.5,0,.7,0s.5,0,.7,0c1.5,0,2.9,0,4.4,0,3.1-.1,6-.3,9.1-.3Z"/>
        <path class="st11" d="M647,563.1c.5,0,1.2.3,1.8.4,2.7,0,7.8-.5,10,.3v15.9c-1,0-2,0-3,0s-.2,0-.3,0c-2.5,0-5,0-7.4,0-4.1,0-8.1,0-12.2,0s-5.9,0-8.8,0-8.1,0-12.2,0-5.9,0-8.8,0-4.1,0-6.1,0v-16.2c9.9,0,20-.4,29.7-.3s11.6,0,17.2,0Z"/>
        <path class="st14" d="M544.6,629.4c.2,0,.8.3,1.4.3-.3,1.4,1,1.2,1.8,1.7s1.3,2.2,3.3,1.2,2-2,5.1-1.9,2.9.8,4.1,3c1-1,2.8-.4,3.5-.8s.8-2.5,1.2-2.6c1.9-.4,2.4,1.9,3.2,2.2,2.4,1.1,2.4-1.3,3.4-2.9.6,0,1.1,0,1.7,0,1.2,0,2.6-.3,4.1-.3,0,2.2,4.3,2.6,3.7,0,1,0,2.4.3,3.7.3s2.7,0,4.1,0c.2,1.7,3.6,1.7,3.7,0,.7,0,1.3-.3,1.4-.3.8,0,1.5.4,2.4.3,1.3,2.5,1,3.3,3.7,1.7-.2,4.8.1,9.7,0,14.5-17.5,0-36.1.5-53.6-.4s-3.3,0-4.9,0c0-.3-.3-.5-.4-1.1-.4-4.6.3-9.8,0-14.5.3-.8,2.5-.6,3.3-.6ZM541.5,630.1v14.2c1.1,0,1.7.6,2.8.7s2.5-.4,3.7-.4c17.2-.3,34.4.3,51.6,0-.4-1.5-5.1-1-5.4-1.4,0-1.1,1.6-2.4-.5-2.4s-1,2.1-1.2,2.4c-.4.6-7.9.5-9.1,0-.4-.6,1.8-2.4-.5-2.4s-1,2.1-1.2,2.4c-.4.6-7.9.5-9.1,0-.4-.6,1.8-2.4-.5-2.4s-1,2.1-1.2,2.4c-.4.6-7.9.5-9.1,0-.4-.6,1.8-2.4-.5-2.4s-1,2.1-1.2,2.4c-.8,1.2-7.6,0-9.1-.1s-2.8.5-2.8-.4v-5.2c-2.9-.7-1,4.2-1.8,5.4s-2.2.5-2.5.3c-.7-.4-.5-11.5,0-13.1h-2.4ZM557,635.5c0-.1-2.5-.9-2.7-.7-.3,1.2-.4,2.1,0,3.4.8.6,3.3-1.7,2.6-2.7ZM550.3,642.6c.6.1.9-.4,1.3-.8-.5-1.7-1.6-.6-1.3.8Z"/>
        <path class="st14" d="M553.4,563.1c5.3,0,10.8.3,16.2.3s.5,0,.7,0l29.7.3v15.9h-.3c-2,0-4.1,0-6.1,0h-52.1c-.2-.4-.3-.5-.4-1.1-.4-4.8.4-10.2,0-15.1,3.4,0,6.9,0,10.3,0s1.3-.4,1.8-.4Z"/>
        <path class="st3" d="M599.7,527.6l47.3,35.5c-5.6,0-11.6,0-17.2,0-9.6-7.9-19.9-15-29.4-23,.3-1.8-.3-3.6-.4-5.2s.4-1.9.4-3.1-.4-3.1-.7-4.2Z"/>
        <path class="st9" d="M600.3,540.2l-30.8,23.3c-5.4,0-11-.3-16.2-.3l46.3-35.5c.3,1.1.7,3.1.7,4.2s-.4,2.3-.4,3.1c0,1.6.6,3.5.4,5.2Z"/>
        <path class="st0" d="M551.7,579.7l.3,50c-2,0-4.1,0-6.1,0s-1.1-.3-1.4-.3c0-14.8,0-29.6,0-44.5,0-.8,0-1.5,0-2.2,0-1,0-2,0-3h7.1Z"/>
        <path class="st14" d="M648,579.7v49.7c-4,0-8.1,0-12.2,0v-49.7c4.1,0,8.1,0,12.2,0Z"/>
        <path class="st1" d="M627,579.7l.3,50c-4.2,0-8.5-.3-12.5-.3.2-4.3-.3-8.8,0-13s.3-3.7.4-4c.3-.8,2.9-1.3,3-1.6v-12.5c-1,0-2,0-3,0l-.3-18.6c4.1,0,8.1,0,12.2,0Z"/>
        <path class="st17" d="M635.8,579.7v49.7c-2.8,0-5.8.3-8.5.3l-.3-50c2.9,0,5.9,0,8.8,0Z"/>
        <path class="st4" d="M655.4,579.7v49.7c-2.9.2-4.7,0-7.4,0v-49.7c2.5,0,5,0,7.4,0Z"/>
        <path class="st4" d="M618.3,610.8c0,.2-2.7.8-3,1.6s-.4,3.4-.4,4c-.2,4.3.2,8.8,0,13-3.1,0-6.1.2-9.1.3.5-2.1.3-4.3.3-6.4-1.7,0-3.4,0-5.1,0s-.5,0-.7,0v6.1c-.2,0-.5,0-.7,0-.4-2.3-.9-4.2,0-6.4.1,0,.2,0,.3,0,2,0,4.1,0,6.1,0v-12.2s12.2,0,12.2,0Z"/>
        <path class="st1" d="M601,623.3c1.7,0,3.4,0,5.1,0,0,2.1.2,4.3-.3,6.4-1.5,0-2.9,0-4.4,0-.5-2.1-.3-4.3-.3-6.4Z"/>
        <path class="st1" d="M599.7,629.4c.2,0,.5,0,.7,0s.3.2.3.3c-.2,0-.5,0-.7,0,0,.6,0,1.1,0,1.7-2.7,1.7-2.5.8-3.7-1.7,1.3,0,2.2-.2,3.4-.3Z"/>
        <path class="st14" d="M601,623.3c0,2.1-.2,4.3.3,6.4-.2,0-.5,0-.7,0,0-.2-.2-.3-.3-.3v-6.1c.2,0,.5,0,.7,0Z"/>
        <path class="st3" d="M614.9,579.7l.3,18.6c-3,0-6.1,0-9.1,0,0-3.9,0-7.9,0-11.8v-6.8c2.9,0,5.9,0,8.8,0Z"/>
        <path class="st1" d="M606.1,579.7v6.8h-6.1l.7-.5c0-.4-.6,0-.7-.2-.3-.3-.2-5.2-.3-6.1h.3c2,0,4.1,0,6.1,0Z"/>
        <path class="st4" d="M600,563.5v.3l-29.7-.3c9.9,0,19.8,0,29.7,0Z"/>
        <path class="st2" d="M585.5,579.7c-.6,6-.3,12.2-.3,18.3l-3.4-.7c-.4.4-.5,10.4-.4,11.7s.2.7.4,1.1,0,.5.3.7c.6.5,1.9.6,2.7.7v18.3c-1.3,0-2.7-.3-3.7-.3s-2.5,0-3.7,0-2.8.3-4.1.3l-.3-50h12.5Z"/>
        <path class="st0" d="M573,579.7l.3,50c-.6,0-1.1,0-1.7,0-2.6,0-5.2,0-7.8,0l.3-50h8.8Z"/>
        <path class="st0" d="M593.9,611.1v18.3c0,0-.7.3-1.4.3-1.2,0-2.5,0-3.7,0s-2.7,0-4.1,0v-18.3c2.9.2,6.3,0,9.1-.3Z"/>
        <path class="st1" d="M541.5,630.1h2.4c-.4,1.6-.7,12.7,0,13.1s2.2.1,2.5-.3c.9-1.2-1.1-6.1,1.8-5.4v5.2c0,.9,2.2.3,2.8.4,1.5.1,8.3,1.4,9.1.1s-1.1-2.4,1.2-2.4.1,1.8.5,2.4c1.2.5,8.7.6,9.1,0s-1.1-2.4,1.2-2.4.1,1.8.5,2.4c1.2.5,8.7.6,9.1,0s-1.1-2.4,1.2-2.4.1,1.8.5,2.4c1.2.5,8.7.6,9.1,0s-1.1-2.4,1.2-2.4.5,1.3.5,2.4c.3.3,5-.2,5.4,1.4-17.2.2-34.4-.3-51.6,0s-2.3.5-3.7.4-1.7-.8-2.8-.7v-14.2Z"/>
        <path class="st1" d="M563.8,629.7c2.6,0,5.2,0,7.8,0-1,1.6-1,4-3.4,2.9s-1.2-2.6-3.2-2.2-.6,2.2-1.2,2.6-2.6-.2-3.5.8c-1.2-2.2-1.3-3-4.1-3s-3.2.9-5.1,1.9-2.3-.4-3.3-1.2-2.2-.4-1.8-1.7c2,0,4.1,0,6.1,0,3.9,0,7.9,0,11.8,0Z"/>
        <path class="st2" d="M599.7,623c-.9,2.2-.4,4.1,0,6.4-1.2.1-2.1.3-3.4.3s-1.6-.3-2.4-.3v-6.4h5.7Z"/>
        <path class="st1" d="M557,635.5c.6.9-1.9,3.3-2.6,2.7-.4-1.2-.3-2.1,0-3.4.2-.2,2.6.6,2.7.7Z"/>
        <path class="st1" d="M581.1,629.4c.6,2.6-3.8,2.2-3.7,0,1.2,0,2.5,0,3.7,0Z"/>
        <path class="st1" d="M592.6,629.7c-.2,1.7-3.6,1.7-3.7,0,1.2,0,2.5,0,3.7,0Z"/>
        <path class="st1" d="M550.3,642.6c-.3-1.4.8-2.5,1.3-.8-.4.4-.7,1-1.3.8Z"/>
        <path class="st2" d="M564.2,579.7l-.3,50c-3.9,0-7.9,0-11.8,0l-.3-50h12.5Z"/>
        <path class="st0" d="M593.6,579.7l.7,6.8c-1,1.6.2,10.8-.3,11.5s-.6,0-.7,0,0,.6,0,.7c-.3.2-7,0-8.1,0v-.7c0-6.1-.3-12.3.3-18.3h8.1Z"/>
        <path class="st2" d="M599.7,579.7c.1.8,0,5.7.3,6.1-.8,0-1.2-.2-1,.7h-4.7l-.7-6.8c2,0,4.1,0,6.1,0Z"/>
        <path class="st3" d="M593.9,611.1c-2.8.4-6.3.6-9.1.3s-2.1-.2-2.7-.7c3.6.3,7.9-.5,11.3,0s.5,0,.5.3Z"/>
        <g>
          <path class="st13" d="M606.1,586.5c0,3.9,0,7.9,0,11.8,3,0,6.1,0,9.1,0s2,0,3,0v12.5h-12.2c.3-.3.3-.3.8-.4,3.4-.4,7.5.3,11,0v-11.5h-11.3c-1.6,0-.8-1.6-.8-1.9v-10.3h-5.1c.2,1.4.7,3.5.7,4.9s-.6,2-.6,2.8c0,7.2.3,14.4.2,21.6,0,2.2,0,4.4,0,6.6h4.7c.3-3.5-.4-7.6,0-11s0-.5.4-.8v12.2c-2,0-4.1,0-6.1,0v-36.5h6.1Z"/>
          <path class="st16" d="M599,586.5h1v36.5c-.1,0-.2,0-.3,0h-5.7v-11.8c0-.3-.2-.3-.5-.3-3.5-.4-7.8.3-11.3,0-.3-.2-.2-.4-.3-.7v-11.5c1.1,0,2.3,0,3.4,0s7.8.2,8.1,0c.7,0,.8,0,.7-.7.5-.7-.6-9.9.3-11.5h4.7Z"/>
          <path class="st3" d="M600,585.8c0,0,.7-.2.7.2l-.7.5h-1c-.2-.9.2-.7,1-.7Z"/>
          <path class="st3" d="M585.1,598v.7c-1.1,0-2.3,0-3.4,0v11.5c-.2-.4-.3-.5-.4-1.1-.1-1.3,0-11.3.4-11.7l3.4.7Z"/>
          <path class="st3" d="M593.9,598c0,.7,0,.8-.7.7,0,0,0-.6,0-.7s.6,0,.7,0Z"/>
          <path class="st7" d="M606.1,610.8c-.3.3-.3.3-.4.8-.4,3.4.3,7.5,0,11h-4.7c0-2.2,0-4.4,0-6.6,0-7.2-.3-14.3-.2-21.6s.6-1.7.6-2.8-.5-3.5-.7-4.9h5.1v10.3c0,.3-.7,1.9.8,1.9h11.3v11.5c-3.5.3-7.6-.4-11,0s-.5,0-.8.4Z"/>
        </g>
      </g>
    </g>
  </g>
</svg>