<?xml version="1.0" encoding="UTF-8"?>
<svg id="Capa_1" xmlns="http://www.w3.org/2000/svg" xmlns:xlink="http://www.w3.org/1999/xlink" version="1.1" viewBox="0 0 1200 1200">
  <!-- Generator: Adobe Illustrator 29.4.0, SVG Export Plug-In . SVG Version: 2.1.0 Build 152)  -->
  <defs>
    <style>
      .st0 {
        fill: #003168;
      }

      .st1 {
        fill: #fff;
      }

      .st2 {
        fill: url(#Degradado_sin_nombre_4);
      }

      .st3 {
        fill: url(#Degradado_sin_nombre_41);
      }

      .st4 {
        fill: #343e4f;
      }
    </style>
    <linearGradient id="Degradado_sin_nombre_4" data-name="Degradado sin nombre 4" x1="1163.8" y1="39.9" x2="3.3" y2="1192.8" gradientTransform="translate(0 1200) scale(1 -1)" gradientUnits="userSpaceOnUse">
      <stop offset=".5" stop-color="#384252"/>
      <stop offset="1" stop-color="#1f2937"/>
    </linearGradient>
    <linearGradient id="Degradado_sin_nombre_41" data-name="Degradado sin nombre 4" x1="-23.1" y1="23.1" x2="1396.1" y2="23.1" xlink:href="#Degradado_sin_nombre_4"/>
  </defs>
  <g id="Capa_11" data-name="Capa_1">
    <rect class="st2" width="1200" height="1200" rx="3" ry="3"/>
  </g>
  <ellipse class="st4" cx="611.7" cy="1144" rx="709.6" ry="472.1"/>
  <ellipse class="st3" cx="686.5" cy="1176.9" rx="709.6" ry="472.1"/>
  <circle class="st1" cx="600.1" cy="600" r="86.4"/>
  <path id="Shape" class="st0" d="M630.4,573.6c-7.3,0-15.9-1.4-23.2-2.6l-.2,26c0,5.8.8,10.1,3,12.7v.4c-7.9,4.6-19.3,12.1-22.6,15.1,4.2,3,14.1,6.6,22.6,6.6,12.7,0,19.3-2.4,22.6-5.8l1.2.8-6.8,20.1c-6.6,1.4-13.7,2.2-20.9,2.2-28.2,0-50.4-17.3-50.4-41.5s13.9-27.6,33.8-38.5v-.2c-1.4-.2-16.3-1.6-19.9-1.6-6,0-10.3,1.6-16.1,8.7l-1.8-1c5.6-8.9,9.3-15.1,14.7-24,23.2,0,42.1,4.8,51.6,4.8s17.1-1.8,19.5-3.8l.8.2c-.8,2-7.9,21.5-7.9,21.5h0ZM574.8,604.2c0,8.9,4.2,14.5,9.9,18.9,2.8-1.6,5.8-5.8,5.8-10.7l.4-40.3c-9.1,6.6-16.1,14.5-16.1,32.2h0Z"/>
</svg>