<?xml version="1.0" encoding="UTF-8"?>
<svg id="Capa_1" xmlns="http://www.w3.org/2000/svg" xmlns:xlink="http://www.w3.org/1999/xlink" version="1.1" viewBox="0 0 1200 1200">
  <!-- Generator: Adobe Illustrator 29.5.0, SVG Export Plug-In . SVG Version: 2.1.0 Build 137)  -->
  <defs>
    <style>
      .st0 {
        fill: #343e4f;
        stroke: #434a54;
      }

      .st0, .st1 {
        stroke-miterlimit: 10;
      }

      .st2 {
        fill: #fff;
      }

      .st3 {
        fill: url(#Degradado_sin_nombre);
      }

      .st1 {
        fill: url(#Degradado_sin_nombre_2);
        stroke: #494949;
      }
    </style>
    <linearGradient id="Degradado_sin_nombre" data-name="Degradado sin nombre" x1="1163.8" y1="39.9" x2="3.3" y2="1192.8" gradientTransform="translate(0 1200) scale(1 -1)" gradientUnits="userSpaceOnUse">
      <stop offset=".5" stop-color="#384252"/>
      <stop offset="1" stop-color="#1f2937"/>
    </linearGradient>
    <linearGradient id="Degradado_sin_nombre_2" data-name="Degradado sin nombre 2" x1="-23.1" y1="23.1" x2="1396.1" y2="23.1" gradientTransform="translate(0 1200) scale(1 -1)" gradientUnits="userSpaceOnUse">
      <stop offset=".5" stop-color="#384252"/>
      <stop offset="1" stop-color="#1f2937"/>
    </linearGradient>
  </defs>
  <g id="Capa_11" data-name="Capa_1">
    <rect class="st3" width="1200" height="1200" rx="3" ry="3"/>
  </g>
  <g id="Capa_3">
    <g>
      <ellipse class="st0" cx="611.7" cy="1144" rx="709.6" ry="472.1"/>
      <ellipse class="st1" cx="686.5" cy="1176.9" rx="709.6" ry="472.1"/>
    </g>
  </g>
  <g>
    <path class="st2" d="M768.5,642.9c-2.3-1.5-5-2.8-7.7-4.1,2.1-5.5,3.4-11.1,3.7-16h12.2c-.5,7.6-3.4,14.6-8.3,20.1M754.1,652.8c1.9-2.8,3.4-5.9,4.7-9,2.1.9,4.1,2,5.7,3-3,2.6-6.6,4.6-10.4,6M746.1,654.8c-.7.2-1.4.2-2,.3v-15.3c3.2.4,6.4,1,9.4,2-2,4.6-4.5,9.1-7.5,13.1M744.1,622.9h14.7c-.4,4.4-1.5,9.2-3.2,14-3.8-1.5-7.8-2.4-11.5-2.8v-11.2h0ZM744.1,606.1c3.7-.4,7.6-1.4,11.5-2.8,1.8,4.7,2.8,9.4,3.2,14h-14.7v-11.1h0ZM744.1,585c.6,0,1.3.1,2,.3,3.1,4.1,5.7,8.5,7.6,13-3,1-6.4,1.7-9.6,2.1v-15.3h0ZM764.5,593.2c-1.7,1-3.6,2.1-5.6,2.9-1.3-3-3-6.1-4.8-8.9,3.8,1.4,7.3,3.4,10.4,5.9M776.8,617.2h-12.2c-.4-4.9-1.7-10.5-3.7-16,2.8-1.3,5.4-2.7,7.7-4.1,4.9,5.5,7.7,12.4,8.2,20M738.3,634c-3.6.4-7.7,1.4-11.4,2.8-1.8-4.8-2.8-9.5-3.2-14h14.7v11.2h0ZM738.3,655.1c-.6,0-1.2-.1-2-.3-2.9-3.9-5.5-8.4-7.5-13.1,3.1-.9,6.2-1.6,9.4-2v15.3h0ZM718,646.8c1.6-1.1,3.6-2.1,5.7-3,1.2,3.1,2.8,6.2,4.7,9-3.9-1.4-7.4-3.4-10.4-6M705.6,622.8h12.3c.3,4.8,1.6,10.5,3.7,16-2.7,1.2-5.3,2.6-7.7,4.1-4.8-5.5-7.7-12.4-8.3-20.1M713.9,597.2c2.3,1.4,4.9,2.8,7.7,4.1-2,5.5-3.4,11.1-3.7,16h-12.3c.6-7.7,3.4-14.6,8.3-20M728.3,587.3c-1.8,2.7-3.4,5.8-4.8,8.9-2.1-.9-4.1-2.1-5.6-2.9,3-2.6,6.5-4.6,10.4-5.9M738.3,606.1v11.1h-14.7c.4-4.5,1.5-9.2,3.2-14,3.8,1.4,7.8,2.5,11.4,2.8M736.4,585.3c.6-.2,1.3-.2,2-.3v15.3c-3.2-.4-6.5-1.1-9.6-2.1,2-4.5,4.6-8.9,7.6-13M741.2,578.6c-23.6,0-42.3,18.3-42.3,41.5s18.7,41.5,42.3,41.5,42.3-18.3,42.3-41.5-18.7-41.5-42.3-41.5"/>
    <path class="st2" d="M675.8,632.4c10.4-4.4,17.2-12.9,17.2-25.6v-.2c0-8.2-2.5-14.7-7.4-19.4-5.6-5.7-14.4-9.1-27.2-9.1h-177.4l-19.9,32.3-19.9-32.3h-24.7v83.5h22.9v-47.7l21.2,32.4h.5l21-32.1v47.4h82.5l-11.8-19.7h-47.3v-13.2h44.3l-11.8-18.3h-32.5v-12.6h67v63.8h23.1v-63.9h23.3v63.8h23.1v-25.3h10.1l16.8,25.3h26.7l-19.9-29.1h0ZM669.7,608.2c0,6.1-4.5,9.9-12.4,9.9h-15.3v-20h15.1c7.8,0,12.5,3.4,12.5,9.9v.2h0Z"/>
    <g>
      <path class="st2" d="M618.7,671.6h3.3l2.9,9.6,3.2-9.6h2.7l3.2,9.6,2.9-9.6h3.2l-4.8,14.2h-2.7l-3.2-9.2-3.2,9.2h-2.7l-4.8-14.2h0Z"/>
      <path class="st2" d="M650.1,685.9c-1.1,0-2.1-.2-3-.6s-1.7-.9-2.4-1.6-1.2-1.4-1.6-2.3-.5-1.8-.5-2.8h0c0-1.1.2-2,.6-2.9.4-.9.9-1.6,1.6-2.3s1.4-1.2,2.4-1.6c.9-.4,1.9-.6,3-.6s2.1.2,3,.6,1.7.9,2.4,1.6,1.2,1.4,1.6,2.3c.4.9.5,1.8.5,2.8h0c0,1.1-.2,2-.6,2.9s-.9,1.6-1.6,2.3-1.4,1.2-2.4,1.6-1.9.6-3,.6ZM650.1,683.1c.6,0,1.2-.1,1.7-.4.5-.2,1-.5,1.3-.9.4-.4.7-.9.9-1.4s.3-1.1.3-1.7h0c0-.6-.1-1.2-.3-1.8s-.5-1-.9-1.4-.9-.7-1.4-1-1.1-.4-1.7-.4-1.2.1-1.7.4c-.5.2-1,.5-1.3.9-.4.4-.7.9-.9,1.4-.2.5-.3,1.1-.3,1.7h0c0,.6.1,1.2.3,1.8s.5,1,.9,1.4.8.7,1.4,1c.5.2,1.1.4,1.7.4h0Z"/>
      <path class="st2" d="M661.6,671.6h6.4c1.8,0,3.2.5,4.1,1.4s1.2,1.9,1.2,3.2h0c0,1.2-.3,2.1-.9,2.8-.5.7-1.3,1.2-2.2,1.6l3.4,5h-3.6l-3-4.5h-2.5v4.5h-3.1v-14.1h.1ZM667.9,678.4c.8,0,1.4-.2,1.8-.5s.6-.9.6-1.4h0c0-.7-.2-1.2-.7-1.6-.4-.4-1-.5-1.8-.5h-3.1v4.1h3.2Z"/>
      <path class="st2" d="M678.2,671.6h3.1v11.3h7v2.8h-10.1v-14.1h0Z"/>
      <path class="st2" d="M692.3,671.6h5.5c1.1,0,2.1.2,3,.5s1.7.9,2.4,1.5,1.2,1.4,1.6,2.2.5,1.8.5,2.8h0c0,1-.2,2-.5,2.8s-.9,1.6-1.6,2.2-1.4,1.1-2.4,1.5-2,.5-3,.5h-5.5v-14.1h0ZM697.8,682.9c.6,0,1.2-.1,1.8-.3.5-.2,1-.5,1.3-.9s.7-.8.9-1.3.3-1.1.3-1.7h0c0-.7-.1-1.2-.3-1.8-.2-.5-.5-1-.9-1.4-.4-.4-.8-.7-1.3-.9-.5-.2-1.1-.3-1.8-.3h-2.4v8.5h2.4Z"/>
      <path class="st2" d="M715.8,671.6h2.8l6.6,8.7v-8.7h3.1v14.1h-2.7l-6.8-9v9h-3.1v-14.1h0Z"/>
      <path class="st2" d="M733,671.6h10.7v2.8h-7.6v2.9h6.7v2.8h-6.7v3h7.7v2.8h-10.7v-14.1h0Z"/>
      <path class="st2" d="M746.6,671.6h3.3l2.9,9.6,3.2-9.6h2.7l3.2,9.6,2.9-9.6h3.2l-4.8,14.2h-2.7l-3.2-9.2-3.2,9.2h-2.7l-4.8-14.2h0Z"/>
      <path class="st2" d="M775.8,685.9c-1.1,0-2.1-.2-3.2-.5-1.1-.4-2-.9-2.8-1.7l1.8-2.2c.7.5,1.3.9,2,1.2.7.3,1.4.5,2.2.5s1.1-.1,1.5-.4c.4-.2.5-.5.5-1h0c0-.2,0-.4-.1-.6s-.2-.3-.4-.4c-.2-.1-.5-.3-.9-.4-.4-.1-.9-.3-1.4-.4-.7-.2-1.4-.4-2-.6s-1.1-.5-1.5-.8-.7-.7-.9-1.2c-.2-.5-.4-1.1-.4-1.8h0c0-.7.1-1.2.4-1.8.2-.5.6-1,1-1.3.4-.4.9-.7,1.6-.9.6-.2,1.2-.3,2-.3,1.1,0,2,.2,2.8.5s1.7.7,2.4,1.3l-1.6,2.3c-.6-.4-1.2-.8-1.9-1-.6-.2-1.2-.4-1.8-.4s-1.1.1-1.4.4c-.3.2-.5.5-.5.9h0c0,.3,0,.5.1.6,0,.2.2.3.5.5.2.1.5.3.9.4s.9.3,1.5.4c.7.2,1.4.4,1.9.6.5.2,1.1.5,1.4.9.4.4.7.7.9,1.2.2.4.3,1,.3,1.6h0c0,.7-.1,1.4-.4,1.9s-.6,1-1.1,1.4c-.5.4-1,.7-1.6.9-.6.2-1.3.3-2.1.3h.1Z"/>
    </g>
  </g>
</svg>