<?xml version="1.0" encoding="UTF-8"?>
<svg id="Capa_1" xmlns="http://www.w3.org/2000/svg" xmlns:xlink="http://www.w3.org/1999/xlink" version="1.1" viewBox="0 0 1200 1200">
  <!-- Generator: Adobe Illustrator 29.4.0, SVG Export Plug-In . SVG Version: 2.1.0 Build 152)  -->
  <defs>
    <style>
      .st0 {
        fill: #fff;
      }

      .st1 {
        fill: url(#Degradado_sin_nombre);
      }

      .st2 {
        fill: url(#Degradado_sin_nombre_6);
      }

      .st3 {
        fill: url(#Degradado_sin_nombre_2);
      }

      .st4 {
        fill: #343e4f;
      }
    </style>
    <linearGradient id="Degradado_sin_nombre" data-name="Degradado sin nombre" x1="1163.8" y1="39.9" x2="3.3" y2="1192.8" gradientTransform="translate(0 1200) scale(1 -1)" gradientUnits="userSpaceOnUse">
      <stop offset=".5" stop-color="#384252"/>
      <stop offset="1" stop-color="#1f2937"/>
    </linearGradient>
    <linearGradient id="Degradado_sin_nombre_2" data-name="Degradado sin nombre 2" x1="-23.1" y1="23.1" x2="1396.1" y2="23.1" gradientTransform="translate(0 1200) scale(1 -1)" gradientUnits="userSpaceOnUse">
      <stop offset=".5" stop-color="#384252"/>
      <stop offset="1" stop-color="#1f2937"/>
    </linearGradient>
    <linearGradient id="Degradado_sin_nombre_6" data-name="Degradado sin nombre 6" x1="514.3" y1="600" x2="687" y2="600" gradientUnits="userSpaceOnUse">
      <stop offset="0" stop-color="#8cca16"/>
      <stop offset="1" stop-color="#eea20b"/>
    </linearGradient>
  </defs>
  <g id="Capa_11" data-name="Capa_1">
    <rect class="st1" width="1200" height="1200" rx="3" ry="3"/>
  </g>
  <ellipse class="st4" cx="611.7" cy="1144" rx="709.6" ry="472.1"/>
  <ellipse class="st3" cx="686.5" cy="1176.9" rx="709.6" ry="472.1"/>
  <circle class="st2" cx="600.6" cy="600" r="86.4"/>
  <g>
    <path class="st0" d="M583.1,617.3h-18.1l-2.5,8.5h-16.3l19.4-51.5h17.4l19.4,51.5h-16.7l-2.6-8.5ZM579.8,606.1l-5.7-18.5-5.6,18.5h11.3Z"/>
    <path class="st0" d="M607.4,574.2h29.8c5,0,8.8,1.2,11.4,3.7,2.7,2.5,4,5.5,4,9.1s-.9,5.7-2.8,7.8c-1.3,1.5-3.1,2.6-5.6,3.4,3.7.9,6.4,2.4,8.2,4.6,1.7,2.2,2.6,4.9,2.6,8.2s-.6,5.1-1.9,7.2c-1.2,2.1-2.9,3.8-5.1,5.1-1.3.8-3.4,1.3-6,1.7-3.6.5-6,.7-7.1.7h-27.5v-51.5ZM623.5,594.4h6.9c2.5,0,4.2-.4,5.2-1.3,1-.9,1.5-2.1,1.5-3.7s-.5-2.7-1.5-3.5c-1-.8-2.7-1.3-5.1-1.3h-7v9.8ZM623.5,614.7h8.1c2.7,0,4.7-.5,5.8-1.5,1.1-1,1.7-2.3,1.7-3.9s-.6-2.7-1.7-3.7c-1.1-.9-3.1-1.4-5.9-1.4h-8.1v10.4Z"/>
  </g>
</svg>